<svg width="40" height="34" viewBox="0 0 40 34" version="1.1" xmlns="http://www.w3.org/2000/svg" xmlns:xlink="http://www.w3.org/1999/xlink">
<title>marketing</title>
<desc>Created using Figma</desc>
<g id="Canvas" transform="translate(-31228 -2116)">
<g id="marketing">
<g id="Group">
<g id="Vector">
<use xlink:href="#path0_fill" transform="translate(31264.7 2125.12)" fill="#5200FF"/>
</g>
<g id="Vector">
<use xlink:href="#path1_fill" transform="translate(31228 2125.43)" fill="#5200FF"/>
</g>
<g id="Vector">
<use xlink:href="#path2_fill" transform="translate(31241.3 2116)" fill="#5200FF"/>
</g>
<g id="Vector">
<use xlink:href="#path3_fill" transform="translate(31232.2 2122.54)" fill="#5200FF"/>
</g>
<g id="Vector">
<use xlink:href="#path4_fill" transform="translate(31234.4 2137.58)" fill="#5200FF"/>
</g>
</g>
</g>
</g>
<defs>
<path id="path0_fill" d="M -1.05552e-06 0L -1.05552e-06 7.78609C 1.85906 7.42296 3.26848 5.81846 3.26848 3.89305C 3.25984 1.96763 1.85906 0.363126 -1.05552e-06 0Z"/>
<path id="path1_fill" d="M 0 0.616656L 0 6.57023C 0 6.90802 0.285344 7.1867 0.631215 7.1867L 2.00605 7.1867L 2.00605 0.000186857L 0.631215 0.000186857C 0.285344 -0.00825793 0 0.27042 0 0.616656Z"/>
<path id="path2_fill" d="M 21.2624 0.00975119C 21.2365 -0.00713837 21.2192 0.00130641 21.2019 0.00975119C 14.6304 3.59878 7.49676 5.7522 -5.27758e-07 6.42779L -5.27758e-07 19.6016C 7.49676 20.2688 14.6217 22.4222 21.2019 26.0197C 21.2192 26.0281 21.2278 26.0366 21.2624 26.0197C 21.2884 26.0028 21.2884 25.9943 21.2884 25.9775L 21.2884 0.0519751C 21.2797 0.0350855 21.2797 0.0266408 21.2624 0.00975119Z"/>
<path id="path3_fill" d="M 7.02118 1.28857e-07L 1.2019 1.28857e-07C 0.5361 1.28857e-07 0 0.523577 0 1.17383L 0 11.772C 0 12.2449 0.293991 12.6587 0.709036 12.8445C 0.864678 12.9121 0.907912 12.9205 1.12408 12.9459C 1.15002 12.9459 7.02118 12.9459 7.02118 12.9459L 7.02118 1.28857e-07Z"/>
<path id="path4_fill" d="M 5.04972 0L 2.63879e-07 0L 4.60009 12.4054C 4.60009 12.4138 4.61738 12.4223 4.62603 12.4223L 9.61522 12.4223C 9.62387 12.4223 9.63251 12.4223 9.64116 12.4054C 9.64981 12.3885 9.64981 12.3885 9.64116 12.3801L 5.04972 0Z"/>
</defs>
</svg>
