<svg width="118" height="118" viewBox="0 0 118 118" version="1.1" xmlns="http://www.w3.org/2000/svg" xmlns:xlink="http://www.w3.org/1999/xlink">
<title>quote</title>
<desc>Created using Figma</desc>
<g id="Canvas" transform="translate(-31021 -3810)">
<g id="quote">
<g id="Ellipse 2" filter="url(#filter0_d)">
<use xlink:href="#path0_fill" transform="translate(31041 3814)" fill="#00D6FF"/>
</g>
<g id="&#226;&#128;&#156;">
<use xlink:href="#path1_fill" transform="translate(31059 3898)" fill="#000AFF"/>
</g>
</g>
</g>
<defs>
<filter id="filter0_d" filterUnits="userSpaceOnUse" x="31021" y="3810" width="118" height="118" color-interpolation-filters="sRGB">
<feFlood flood-opacity="0" result="BackgroundImageFix"/>
<feColorMatrix in="SourceAlpha" type="matrix" values="0 0 0 0 0 0 0 0 0 0 0 0 0 0 0 0 0 0 255 0"/>
<feOffset dx="0" dy="16"/>
<feGaussianBlur stdDeviation="10"/>
<feColorMatrix type="matrix" values="0 0 0 0 0 0 0 0 0 0 0 0 0 0 0 0 0 0 0.1 0"/>
<feBlend mode="normal" in2="BackgroundImageFix" result="effect1_dropShadow"/>
<feBlend mode="normal" in="SourceGraphic" in2="effect1_dropShadow" result="shape"/>
</filter>
<path id="path0_fill" d="M 78 39C 78 60.5391 60.5391 78 39 78C 17.4609 78 0 60.5391 0 39C 0 17.4609 17.4609 0 39 0C 60.5391 0 78 17.4609 78 39Z"/>
<path id="path1_fill" d="M 37.728 -31.232L 24.624 -31.232C 23.472 -36.224 22.896 -40.64 22.896 -44.48C 22.896 -55.328 27.792 -60.752 37.584 -60.752L 37.584 -54.416C 32.976 -54.416 30.672 -51.92 30.672 -46.928L 30.672 -43.616L 37.728 -43.616L 37.728 -31.232ZM 18.288 -31.232L 5.184 -31.232C 4.032 -36.224 3.456 -40.64 3.456 -44.48C 3.456 -55.328 8.352 -60.752 18.144 -60.752L 18.144 -54.416C 13.536 -54.416 11.232 -51.92 11.232 -46.928L 11.232 -43.616L 18.288 -43.616L 18.288 -31.232Z"/>
</defs>
</svg>
